<svg xmlns="http://www.w3.org/2000/svg"  viewBox="0 0 64 64" width="64px" height="64px"><linearGradient id="3I2Noo7pWEtTNrptMJT8ia" x1="41.5" x2="41.5" y1="24.092" y2="41.092" gradientUnits="userSpaceOnUse"><stop offset="0" stop-color="#1a6dff"/><stop offset="1" stop-color="#c822ff"/></linearGradient><path fill="url(#3I2Noo7pWEtTNrptMJT8ia)" d="M41.5,24.092c-4.687,0-8.5,3.813-8.5,8.5s3.813,8.5,8.5,8.5s8.5-3.813,8.5-8.5 S46.187,24.092,41.5,24.092z M41.5,39.092c-3.584,0-6.5-2.916-6.5-6.5s2.916-6.5,6.5-6.5s6.5,2.916,6.5,6.5 S45.084,39.092,41.5,39.092z"/><linearGradient id="3I2Noo7pWEtTNrptMJT8ib" x1="31.5" x2="31.5" y1="5.092" y2="59.092" gradientUnits="userSpaceOnUse"><stop offset="0" stop-color="#1a6dff"/><stop offset="1" stop-color="#c822ff"/></linearGradient><path fill="url(#3I2Noo7pWEtTNrptMJT8ib)" d="M40.56,24.092c5.206,0,9.44-4.249,9.44-9.471c0-5.255-4.235-9.529-9.44-9.529h-7.675h-1.77 H22.44c-5.206,0-9.44,4.248-9.44,9.47c0,3.74,2.151,6.975,5.265,8.534C15.149,24.651,13,27.857,13,31.562 c0,3.769,2.197,7.025,5.368,8.57C15.163,41.753,13,45.122,13,49.116c0,5.501,4.476,9.977,9.977,9.977 C28.503,59.092,33,54.595,33,49.068v-7.976v-2v-6.5v-8.5H40.56z M15,14.562c0-4.119,3.338-7.47,7.44-7.47H31v15h-8.505H22.44 C18.338,22.092,15,18.714,15,14.562z M31,49.068c0,4.425-3.599,8.024-8.023,8.024c-4.398,0-7.977-3.578-7.977-7.977 c0-4.499,3.395-8.023,7.729-8.023H31V49.068z M31,39.092h-8.271h-0.234c-4.132,0-7.495-3.378-7.495-7.53 c0-4.119,3.362-7.47,7.495-7.47H31V39.092z M33,22.092v-15h7.56c4.103,0,7.44,3.378,7.44,7.529c0,4.119-3.338,7.471-7.44,7.471H33 z"/><linearGradient id="3I2Noo7pWEtTNrptMJT8ic" x1="42.159" x2="42.159" y1="29.41" y2="37.092" gradientUnits="userSpaceOnUse"><stop offset="0" stop-color="#6dc7ff"/><stop offset="1" stop-color="#e6abff"/></linearGradient><path fill="url(#3I2Noo7pWEtTNrptMJT8ic)" d="M44.682,29.41l-6.364,6.364c1.757,1.757,4.607,1.757,6.364,0 C46.439,34.017,46.439,31.168,44.682,29.41z"/><linearGradient id="3I2Noo7pWEtTNrptMJT8id" x1="23" x2="23" y1="49.123" y2="55.046" gradientUnits="userSpaceOnUse"><stop offset="0" stop-color="#6dc7ff"/><stop offset="1" stop-color="#e6abff"/></linearGradient><path fill="url(#3I2Noo7pWEtTNrptMJT8id)" d="M17,49.154c0,3.254,2.679,5.892,5.984,5.892c3.305,0,6.016-2.669,6.016-5.923L17,49.154z"/><linearGradient id="3I2Noo7pWEtTNrptMJT8ie" x1="23.029" x2="23.029" y1="9.092" y2="14.092" gradientUnits="userSpaceOnUse"><stop offset="0" stop-color="#6dc7ff"/><stop offset="1" stop-color="#e6abff"/></linearGradient><path fill="url(#3I2Noo7pWEtTNrptMJT8ie)" d="M22.5,9.092c-2.869,0-5.225,2.197-5.478,5l12.013,0v-5H22.5z"/></svg>