<svg xmlns="http://www.w3.org/2000/svg"  viewBox="0 0 64 64" width="64px" height="64px"><linearGradient id="OL6jExnpwBs834qHc90qSa" x1="31.994" x2="31.994" y1="9.461" y2="49.196" gradientUnits="userSpaceOnUse"><stop offset="0" stop-color="#6dc7ff"/><stop offset="1" stop-color="#e6abff"/></linearGradient><path fill="url(#OL6jExnpwBs834qHc90qSa)" d="M58,33.527c0-0.56-0.215-1.119-0.603-1.506L29.937,5.077 c-0.145-0.155-0.304-0.295-0.476-0.421c-0.01-0.007-0.019-0.016-0.029-0.023c-0.153-0.109-0.317-0.201-0.488-0.284 c-0.037-0.018-0.07-0.041-0.107-0.058c-0.155-0.069-0.32-0.117-0.486-0.162c-0.057-0.016-0.11-0.04-0.169-0.052 C27.956,4.027,27.723,4,27.483,4c-0.202,0-0.399,0.023-0.593,0.06c-0.101,0.018-0.197,0.048-0.294,0.075 c-0.087,0.025-0.172,0.049-0.256,0.08c-0.1,0.037-0.196,0.077-0.291,0.123c-0.126,0.059-0.246,0.127-0.363,0.199 c-0.026,0.017-0.054,0.03-0.079,0.047c-0.034,0.022-0.071,0.039-0.104,0.062L8.094,16.181c-0.036,0.036-0.067,0.046-0.077,0.072 c-0.007,0.005-0.013,0.009-0.02,0.014H7.965c-0.732,0.517-1.334,1.291-1.679,2.195c-0.19,0.5-0.267,1.011-0.285,1.517 c-0.003,0.078-0.014,0.155-0.013,0.232c0.002,0.172,0.023,0.34,0.043,0.51c0.015,0.132,0.03,0.264,0.056,0.394 c0.028,0.134,0.064,0.264,0.103,0.395c0.049,0.168,0.105,0.333,0.172,0.494c0.039,0.093,0.078,0.183,0.123,0.273 c0.101,0.208,0.217,0.405,0.347,0.596c0.028,0.041,0.053,0.083,0.082,0.123c0.362,0.502,0.811,0.944,1.353,1.276 c0.301,0.172,0.56,0.301,0.861,0.387c0.172,0.086,19.819,8.092,19.819,8.092c0.775,0.344,1.679,0.129,2.195-0.517 c0.646-0.818,0.517-1.98-0.301-2.626c-0.028,0-7.717-5.602-12.822-9.61l9.48-8.02l25.003,20.996L18.573,51.648 c-0.818,0.344-1.55,0.947-2.023,1.765c-1.248,2.066-0.56,4.735,1.549,5.983c1.464,0.861,3.228,0.775,4.606-0.086 c0.086-0.086,0.215-0.129,0.301-0.215L56.58,35.507c0.147-0.111,0.502-0.372,0.659-0.528C57.665,34.639,57.954,34.13,58,33.527z"/><linearGradient id="OL6jExnpwBs834qHc90qSb" x1="31.994" x2="31.994" y1="3" y2="61" gradientUnits="userSpaceOnUse"><stop offset="0" stop-color="#1a6dff"/><stop offset="1" stop-color="#c822ff"/></linearGradient><path fill="url(#OL6jExnpwBs834qHc90qSb)" d="M58.098,31.307L30.666,4.393 c-0.187-0.199-0.395-0.383-0.565-0.504c-0.024-0.021-0.062-0.052-0.088-0.071c-0.199-0.142-0.411-0.262-0.614-0.36 c-0.032-0.019-0.124-0.067-0.158-0.082c-0.201-0.089-0.413-0.154-0.632-0.215c-0.07-0.024-0.141-0.046-0.22-0.063 c-0.557-0.119-1.104-0.131-1.671-0.021c-0.119,0.021-0.233,0.052-0.393,0.097c-0.115,0.032-0.228,0.065-0.334,0.105 c-0.13,0.049-0.255,0.101-0.37,0.156c-0.157,0.075-0.309,0.159-0.467,0.255l-0.09,0.054c-0.021,0.012-0.095,0.057-0.114,0.069 L7.541,15.347c-0.048,0.032-0.043,0.024-0.072,0.053c-0.027,0.016-0.054,0.032-0.08,0.051c-0.903,0.637-1.626,1.579-2.038,2.657 c-0.21,0.555-0.324,1.155-0.353,1.888c-0.006,0.077-0.011,0.153-0.01,0.229c0.002,0.206,0.024,0.408,0.053,0.641 c0.018,0.149,0.036,0.296,0.067,0.457c0.034,0.162,0.077,0.317,0.121,0.466c0.06,0.205,0.127,0.403,0.21,0.604 c0.047,0.11,0.095,0.219,0.146,0.324c0.122,0.25,0.261,0.487,0.438,0.752c0.01,0.016,0.068,0.101,0.078,0.115 c0.463,0.639,1.015,1.158,1.668,1.559c0.298,0.171,0.629,0.345,1.031,0.466c0.746,0.312,4.846,1.988,12.198,4.985V42h13.03 l-15.896,8.748c-1.031,0.446-1.899,1.213-2.44,2.147c-0.737,1.221-0.952,2.652-0.605,4.031c0.353,1.401,1.241,2.583,2.504,3.331 C18.436,60.753,19.376,61,20.32,61c1.007,0,2.018-0.281,2.915-0.843c0.064-0.04,0.081-0.044,0.135-0.098 c0.062-0.037,0.158-0.095,0.259-0.18l33.526-23.555c0.008-0.006,0.076-0.057,0.084-0.063c0.183-0.136,0.485-0.368,0.661-0.531 c0.644-0.531,1.032-1.284,1.097-2.127C58.999,33.578,59,33.553,59,33.527C59,32.689,58.674,31.883,58.098,31.307z M21,20v1.727 c-0.81-0.584-1.602-1.165-2.34-1.724l8.81-6.741L35.494,20H21z M43,26.304l7.74,6.5L43,37.064V26.304z M56.614,34.198 c-0.029,0.023-0.057,0.048-0.083,0.074c-0.112,0.112-0.354,0.286-0.526,0.416L22.432,58.276c-0.045,0.032-0.05,0.028-0.089,0.067 c-0.057,0.034-0.14,0.084-0.229,0.156c-1.094,0.652-2.431,0.666-3.505,0.035c-0.798-0.473-1.358-1.217-1.58-2.097 c-0.216-0.857-0.082-1.748,0.387-2.524c0.343-0.592,0.892-1.069,1.546-1.344c0.032-0.014,0.063-0.029,0.095-0.046L38.179,42H43 v-2.653l9.983-5.494c0.289-0.159,0.48-0.45,0.513-0.778s-0.1-0.651-0.352-0.863L43,23.692V20h-4.396l-10.461-8.785 c-0.186-0.156-0.415-0.234-0.644-0.234c-0.214,0-0.428,0.068-0.607,0.206l-10.48,8.02c-0.246,0.188-0.391,0.479-0.393,0.788 c-0.002,0.309,0.14,0.602,0.383,0.792c0.834,0.655,2.59,1.938,4.599,3.366v4.281c-5.656-2.306-11.179-4.561-11.426-4.667 c-0.056-0.027-0.113-0.05-0.173-0.067c-0.183-0.052-0.355-0.132-0.611-0.276c-0.4-0.247-0.76-0.587-1.067-1.012L7.66,22.315 c-0.103-0.153-0.196-0.311-0.277-0.478c-0.036-0.073-0.068-0.146-0.097-0.215c-0.053-0.128-0.097-0.258-0.138-0.399 c-0.031-0.104-0.061-0.207-0.08-0.3c-0.019-0.097-0.029-0.194-0.045-0.328c-0.016-0.132-0.034-0.262-0.031-0.444 C6.993,20.138,7,20.03,7,20.016c0.018-0.459,0.09-0.852,0.221-1.197c0.254-0.665,0.683-1.249,1.216-1.657 c0.058-0.027,0.111-0.059,0.161-0.095c0.042-0.029,0.081-0.062,0.117-0.098L26.049,5.483l0.156-0.093 c0.088-0.054,0.177-0.104,0.28-0.152c0.065-0.032,0.134-0.061,0.207-0.088c0.056-0.021,0.115-0.036,0.224-0.067 c0.048-0.014,0.096-0.028,0.162-0.04c0.284-0.055,0.607-0.052,0.869,0.005c0.023,0.009,0.12,0.039,0.144,0.046 c0.117,0.031,0.233,0.063,0.302,0.092c0.021,0.013,0.092,0.051,0.114,0.062c0.12,0.059,0.236,0.122,0.278,0.147 c0.021,0.02,0.062,0.052,0.086,0.069c0.122,0.088,0.233,0.188,0.365,0.326L56.69,32.728c0.186,0.186,0.3,0.468,0.309,0.762 C56.969,33.773,56.832,34.023,56.614,34.198z"/><path fill="#fff" d="M22.923,37.918h8.221v1.377h-8.221V37.918z M22.837,25.866l0.646-0.603 c0.172,0.215,0.344,0.344,0.56,0.344c0.258,0,0.387-0.172,0.387-0.517V22.81h0.99v2.281c0,0.43-0.129,0.775-0.344,0.99 c-0.215,0.215-0.56,0.344-0.99,0.344C23.439,26.468,23.095,26.21,22.837,25.866z M25.635,22.853h2.884v0.818h-1.894v0.56h1.722 v0.775h-1.722v0.56h1.937v0.861h-2.884L25.635,22.853z M29.81,23.714h-1.076v-0.861h3.142v0.861H30.8v2.712h-0.99V23.714z M22.923,27.243h1.851c0.43,0,0.775,0.129,0.99,0.301c0.129,0.129,0.215,0.344,0.215,0.603c0,0.43-0.215,0.646-0.56,0.818 c0.43,0.129,0.689,0.387,0.689,0.861c0,0.603-0.517,0.99-1.334,0.99h-1.851V27.243z M24.989,28.362c0-0.215-0.172-0.301-0.43-0.301 h-0.646v0.646h0.603C24.817,28.663,24.989,28.577,24.989,28.362z M24.645,29.395H23.87v0.646h0.775 c0.301,0,0.473-0.129,0.473-0.344C25.118,29.481,24.946,29.395,24.645,29.395z M26.28,27.243h1.679c0.56,0,0.904,0.129,1.162,0.387 c0.215,0.215,0.301,0.473,0.301,0.818c0,0.56-0.301,0.904-0.732,1.119l0.861,1.248h-1.119l-0.732-1.076h-0.43v1.076h-0.99 L26.28,27.243z M27.916,28.965c0.344,0,0.517-0.172,0.517-0.43c0-0.301-0.215-0.43-0.517-0.43H27.27v0.861H27.916z"/><path fill="#fff" d="M30.584,27.243h0.947l1.506,3.616h-1.076l-0.258-0.646h-1.377l-0.258,0.646h-1.033L30.584,27.243z M31.445,29.395l-0.387-0.99l-0.387,0.99H31.445z M33.167,27.243h0.99v3.573h-0.99V27.243z M34.415,27.243h0.904l1.463,1.894 v-1.894h0.99v3.573h-0.861l-1.506-1.937v1.98h-0.99V27.243z M37.859,30.299l0.56-0.646c0.344,0.301,0.732,0.43,1.162,0.43 c0.258,0,0.43-0.086,0.43-0.258c0-0.172-0.129-0.215-0.603-0.344c-0.775-0.172-1.334-0.387-1.334-1.119 c0-0.646,0.517-1.162,1.377-1.162c0.603,0,1.076,0.172,1.463,0.473l-0.517,0.689c-0.344-0.215-0.689-0.344-0.99-0.344 c-0.258,0-0.344,0.086-0.344,0.215c0,0.172,0.129,0.215,0.603,0.344c0.818,0.172,1.334,0.43,1.334,1.119 c0,0.732-0.56,1.162-1.463,1.162C38.892,30.902,38.289,30.686,37.859,30.299z"/></svg>