<svg id="visual" viewBox="0 0 900 600" width="900" height="600" xmlns="http://www.w3.org/2000/svg" xmlns:xlink="http://www.w3.org/1999/xlink" version="1.1"><path d="M638 600L633.5 585.7C629 571.3 620 542.7 623 514.2C626 485.7 641 457.3 651.5 428.8C662 400.3 668 371.7 681.5 343C695 314.3 716 285.7 722 257C728 228.3 719 199.7 687.5 171.2C656 142.7 602 114.3 609.5 85.8C617 57.3 686 28.7 720.5 14.3L755 0L900 0L900 14.3C900 28.7 900 57.3 900 85.8C900 114.3 900 142.7 900 171.2C900 199.7 900 228.3 900 257C900 285.7 900 314.3 900 343C900 371.7 900 400.3 900 428.8C900 457.3 900 485.7 900 514.2C900 542.7 900 571.3 900 585.7L900 600Z" fill="#004cbb"></path><path d="M449 600L458 585.7C467 571.3 485 542.7 488 514.2C491 485.7 479 457.3 485 428.8C491 400.3 515 371.7 542 343C569 314.3 599 285.7 618.5 257C638 228.3 647 199.7 621.5 171.2C596 142.7 536 114.3 543.5 85.8C551 57.3 626 28.7 663.5 14.3L701 0L756 0L721.5 14.3C687 28.7 618 57.3 610.5 85.8C603 114.3 657 142.7 688.5 171.2C720 199.7 729 228.3 723 257C717 285.7 696 314.3 682.5 343C669 371.7 663 400.3 652.5 428.8C642 457.3 627 485.7 624 514.2C621 542.7 630 571.3 634.5 585.7L639 600Z" fill="#0059dd"></path><path d="M395 600L401 585.7C407 571.3 419 542.7 413 514.2C407 485.7 383 457.3 372.5 428.8C362 400.3 365 371.7 398 343C431 314.3 494 285.7 513.5 257C533 228.3 509 199.7 482 171.2C455 142.7 425 114.3 434 85.8C443 57.3 491 28.7 515 14.3L539 0L702 0L664.5 14.3C627 28.7 552 57.3 544.5 85.8C537 114.3 597 142.7 622.5 171.2C648 199.7 639 228.3 619.5 257C600 285.7 570 314.3 543 343C516 371.7 492 400.3 486 428.8C480 457.3 492 485.7 489 514.2C486 542.7 468 571.3 459 585.7L450 600Z" fill="#0066ff"></path><path d="M260 600L260 585.7C260 571.3 260 542.7 255.5 514.2C251 485.7 242 457.3 224 428.8C206 400.3 179 371.7 212 343C245 314.3 338 285.7 377 257C416 228.3 401 199.7 372.5 171.2C344 142.7 302 114.3 288.5 85.8C275 57.3 290 28.7 297.5 14.3L305 0L540 0L516 14.3C492 28.7 444 57.3 435 85.8C426 114.3 456 142.7 483 171.2C510 199.7 534 228.3 514.5 257C495 285.7 432 314.3 399 343C366 371.7 363 400.3 373.5 428.8C384 457.3 408 485.7 414 514.2C420 542.7 408 571.3 402 585.7L396 600Z" fill="#3c80ff"></path><path d="M0 600L0 585.7C0 571.3 0 542.7 0 514.2C0 485.7 0 457.3 0 428.8C0 400.3 0 371.7 0 343C0 314.3 0 285.7 0 257C0 228.3 0 199.7 0 171.2C0 142.7 0 114.3 0 85.8C0 57.3 0 28.7 0 14.3L0 0L306 0L298.5 14.3C291 28.7 276 57.3 289.5 85.8C303 114.3 345 142.7 373.5 171.2C402 199.7 417 228.3 378 257C339 285.7 246 314.3 213 343C180 371.7 207 400.3 225 428.8C243 457.3 252 485.7 256.5 514.2C261 542.7 261 571.3 261 585.7L261 600Z" fill="#6198ff"></path></svg>